<svg version="1.0" xmlns="http://www.w3.org/2000/svg"
 width="200.000000pt" height="200.000000pt" viewBox="0 0 200.000000 200.000000"
 preserveAspectRatio="xMidYMid meet">
<g transform="translate(0.000000,200.000000) scale(0.100000,-0.100000)"
fill="#000000" stroke="none">
<path d="M0 1000 l0 -1000 1000 0 1000 0 0 1000 0 1000 -1000 0 -1000 0 0 -1000z m874 823 c4 -4 22 -8 39 -9 20 -1 39 -11 52 -26 11 -14 28 -28 38 -31 9 -4 22 -18 29 -32 9 -21 9 -29 -4 -42 -20 -19 -38 -10 -31 17 4 16 0 20 -19 20 -17 0 -27 8 -35 31 -11 29 -15 31 -46 25 -25 -5 -38 -2 -48 10 -12 14 -14 14 -25 -1 -9 -12 -21 -16 -38 -11 -14 3 -34 1 -45 -6 -16 -10 -25 -9 -45 1 -21 11 -28 12 -41 1 -21 -18 -19 -47 6 -60 27 -15 19 -34 -16 -40 -15 -3 -33 -13 -39 -24 -16 -27 -55 -66 -66 -66 -23 0 -7 42 30 82 27 29 38 49 34 61 -17 53 44 110 93 88 17 -8 30 -8 44 0 11 5 28 7 39 4 10 -3 21 -1 25 5 7 11 58 14 69 3z m-114 -119 c0 -8 -7 -14 -15 -14 -15 0 -21 21 -9 33 10 9 24 -2 24 -19z m56 -69 c4 -8 13 -15 20 -15 8 0 17 7 20 15 8 20 34 19 34 -2 0 -25 -30 -53 -56 -53 -25 0 -60 42 -49 60 9 15 25 12 31 -5z m164 0 c0 -8 -7 -15 -15 -15 -8 0 -15 7 -15 15 0 8 7 15 15 15 8 0 15 -7 15 -15z m113 -18 c18 -24 20 -31 9 -60 -7 -18 -12 -52 -12 -74 0 -32 -4 -42 -20 -46 -16 -4 -20 -14 -20 -44 0 -84 -12 -144 -28 -141 -12 2 -15 17 -13 73 1 39 3 79 4 90 2 15 -4 20 -23 20 -24 0 -25 -2 -28 -82 -4 -116 8 -133 94 -133 l64 0 -5 108 c-4 66 -2 113 4 122 7 11 37 16 108 20 l98 5 5 73 c6 95 16 102 127 102 67 0 83 -3 83 -15 0 -12 -15 -15 -74 -15 -95 0 -106 -10 -106 -91 0 -52 2 -59 20 -59 18 0 20 7 20 55 l0 55 71 0 c62 0 70 -2 67 -17 -2 -14 -15 -19 -54 -21 l-50 -3 4 -34 c3 -26 9 -35 23 -35 10 0 26 -11 35 -25 15 -23 15 -39 0 -217 -27 -321 -23 -298 -62 -298 -37 0 -48 24 -16 32 17 5 20 24 31 159 6 85 14 173 18 197 l5 42 -161 0 -161 0 0 -39 c0 -67 11 -101 31 -101 12 0 23 10 29 25 11 30 65 65 99 65 41 0 90 -38 102 -79 9 -30 8 -44 -5 -74 -8 -21 -22 -40 -31 -43 -12 -5 -15 -24 -15 -95 l0 -89 -120 0 c-95 0 -126 4 -146 16 -23 15 -26 15 -43 0 -15 -14 -35 -16 -107 -14 -51 2 -89 7 -89 13 0 6 36 12 80 15 53 4 90 12 111 25 31 18 31 18 62 -4 28 -19 41 -21 124 -19 l93 3 3 108 3 107 -255 0 -255 0 -3 -122 -3 -123 -123 0 -123 0 -19 30 c-14 22 -16 35 -9 45 8 13 13 11 31 -11 l20 -27 92 53 91 53 5 68 5 69 82 3 82 3 -36 59 c-19 33 -37 60 -40 60 -19 0 -66 -36 -78 -60 -18 -36 -44 -51 -73 -43 -15 4 -53 -12 -122 -51 l-99 -57 16 -34 c12 -26 14 -38 6 -46 -8 -8 -18 0 -37 30 -34 53 -33 65 9 90 l35 20 -7 95 c-3 52 -3 102 1 112 13 35 27 -4 33 -95 3 -50 8 -91 10 -91 2 0 13 5 24 10 21 12 24 49 13 157 l-6 59 -47 -1 c-50 -1 -85 10 -76 26 4 5 122 9 291 9 277 0 284 1 284 20 0 19 -8 20 -287 22 -184 2 -288 7 -288 13 0 6 33 11 73 13 69 3 72 4 72 27 0 26 42 61 60 50 16 -10 12 -35 -6 -35 -9 0 -14 -7 -12 -17 3 -16 21 -18 186 -21 114 -1 190 1 202 8 26 14 25 45 -1 64 -23 16 -17 39 8 34 9 -2 25 -15 36 -31z m-223 -341 c0 -22 -29 -41 -42 -28 -8 8 -8 15 2 27 16 19 40 20 40 1z m-153 -93 c4 -11 -126 -93 -147 -93 -30 0 2 38 60 72 65 37 81 41 87 21z m312 -47 c7 -9 11 -38 9 -73 l-3 -58 -84 -3 c-61 -2 -87 1 -92 10 -13 20 -11 112 3 126 18 18 152 16 167 -2z m256 -61 l0 -70 -85 0 -85 0 -3 59 c-5 88 -5 88 83 91 l90 4 0 -70z"/>
</g>
</svg>